<svg xmlns="http://www.w3.org/2000/svg" viewBox="935 74 20 20">
  <defs>
    <style>
      .cls-1 {
        fill: #fff;
      }
    </style>
  </defs>
  <path id="ic_settings_phone_24px" class="cls-1" d="M21.889,16.889a12.623,12.623,0,0,1-3.967-.633,1.134,1.134,0,0,0-1.133.267l-2.444,2.444a16.749,16.749,0,0,1-7.322-7.311L9.467,9.2a1.091,1.091,0,0,0,.278-1.122,12.623,12.623,0,0,1-.633-3.967A1.114,1.114,0,0,0,8,3H4.111A1.114,1.114,0,0,0,3,4.111,18.887,18.887,0,0,0,21.889,23,1.114,1.114,0,0,0,23,21.889V18A1.114,1.114,0,0,0,21.889,16.889Z" transform="translate(932 71)"/>
</svg>
