<svg xmlns="http://www.w3.org/2000/svg" width="512" height="512" viewBox="0 0 27.483 27.483"><path d="M27.095 12.917L13.443.782c-.5-.444-1.456-.795-2.124-.781L1.454.213A1.284 1.284 0 0 0 .213 1.454L0 11.319c-.014.668.337 1.624.781 2.123l12.135 13.652c.444.5 1.194.521 1.667.048l12.56-12.561a1.133 1.133 0 0 0-.048-1.664zM6.684 6.684a1.824 1.824 0 0 1-2.579-2.578 1.822 1.822 0 0 1 2.577 0 1.82 1.82 0 0 1 .002 2.578zm13.14 8.06h-4.557v4.795h-2.136v-4.795H8.575v-2.048h4.557V7.944h2.136v4.752h4.557v2.048z" fill="#f4d800"/></svg>