<?xml version="1.0" encoding="UTF-8"?><!DOCTYPE svg PUBLIC "-//W3C//DTD SVG 1.1//EN" "http://www.w3.org/Graphics/SVG/1.1/DTD/svg11.dtd"><svg xmlns="http://www.w3.org/2000/svg"><defs><style>.cls-1{fill:#fff}</style><style>.cls-1{fill:#191818}</style><style>.cls-1{fill:#fff}</style><style>.cls-1{fill:#fff}</style></defs><symbol id="call" viewBox="935 74 20 20"><path id="ic_settings_phone_24px" class="cls-1" d="M21.889 16.889a12.623 12.623 0 0 1-3.967-.633 1.134 1.134 0 0 0-1.133.267l-2.444 2.444a16.749 16.749 0 0 1-7.322-7.311L9.467 9.2a1.091 1.091 0 0 0 .278-1.122 12.623 12.623 0 0 1-.633-3.967A1.114 1.114 0 0 0 8 3H4.111A1.114 1.114 0 0 0 3 4.111 18.887 18.887 0 0 0 21.889 23 1.114 1.114 0 0 0 23 21.889V18a1.114 1.114 0 0 0-1.111-1.111z" transform="translate(932 71)"/></symbol><symbol id="go" viewBox="0 0 408 408"><path d="M204 0l-35.7 35.7 142.8 142.8H0v51h311.1L168.3 372.3 204 408l204-204z"/></symbol><symbol id="left" viewBox="995.906 1138.295 17.002 12.389"><path id="Path_6" data-name="Path 6" class="cls-1" d="M864.554 1222.6v4.873h-10.582v2.788h10.583v4.728l6.419-6.419z" transform="translate(141.935 -84.304)"/></symbol><symbol id="right" viewBox="860.571 1138.316 17.002 12.389"><path id="Path_7" data-name="Path 7" class="cls-1" d="M10.583 0v4.873H0v2.788h10.583v4.728L17 5.97z" transform="rotate(180 438.786 575.352)"/></symbol><symbol id="share" viewBox="0 0 525.152 525.152"><path d="M420.735 371.217c-20.021 0-37.942 7.855-51.596 20.24L181.112 282.094c1.357-6.061 2.407-12.166 2.407-18.468s-1.072-12.385-2.407-18.468l185.904-108.335c14.179 13.129 32.931 21.334 53.719 21.334 43.828 0 79.145-35.251 79.145-79.079C499.88 35.338 464.541 0 420.735 0c-43.741 0-79.079 35.338-79.079 79.057 0 6.389 1.072 12.385 2.407 18.468L158.158 205.947c-14.201-13.194-32.931-21.378-53.741-21.378-43.828 0-79.145 35.317-79.145 79.057s35.317 79.079 79.145 79.079c20.787 0 39.54-8.206 53.719-21.334l187.698 109.604c-1.291 5.58-2.101 11.4-2.101 17.199 0 42.45 34.594 76.979 76.979 76.979 42.428 0 77.044-34.507 77.044-76.979s-34.593-76.957-77.021-76.957z" fill="#fff"/></symbol><symbol id="whats" viewBox="725 75 20 20"><path id="whatsapp" class="cls-1" d="M10.166 0a9.833 9.833 0 0 0-8.534 14.717L.017 19.561a.333.333 0 0 0 .4.428l5.29-1.389A9.833 9.833 0 1 0 10.166 0zM16.3 14.3l-.586.586A3.426 3.426 0 0 1 13.263 16a5.721 5.721 0 0 1-3.834-2.031l-3.4-3.4A6.707 6.707 0 0 1 4.09 7.5a3.3 3.3 0 0 1 1.025-3.216L5.7 3.7a1.263 1.263 0 0 1 1.459-.22 6.888 6.888 0 0 1 1.91 2.18 1.243 1.243 0 0 1 .161.94.87.87 0 0 1-.4.517 8.216 8.216 0 0 0-.641.577.9.9 0 0 0 .136 1.32l2.654 2.654a.9.9 0 0 0 1.325.133 8.491 8.491 0 0 0 .573-.637.875.875 0 0 1 .779-.431 1.381 1.381 0 0 1 .676.193 6.9 6.9 0 0 1 2.186 1.911A1.236 1.236 0 0 1 16.3 14.3z" transform="translate(725 75)"/></symbol></svg>