<?xml version="1.0" encoding="UTF-8"?><!DOCTYPE svg PUBLIC "-//W3C//DTD SVG 1.1//EN" "http://www.w3.org/Graphics/SVG/1.1/DTD/svg11.dtd"><svg xmlns="http://www.w3.org/2000/svg"><symbol id="about" viewBox="0 0 24 24"><path d="M3 5v14a2 2 0 0 0 2 2h14c1.1 0 2-.9 2-2V5c0-1.1-.9-2-2-2H5a2 2 0 0 0-2 2zm12 4c0 1.66-1.34 3-3 3s-3-1.34-3-3 1.34-3 3-3 3 1.34 3 3zm-9 8c0-2 4-3.1 6-3.1s6 1.1 6 3.1v1H6v-1z"/><path d="M0 0h24v24H0z" fill="none"/></symbol><symbol id="cap" viewBox="0 0 561 561"><path d="M102 311.1v102L280.5 510 459 413.1v-102L280.5 408 102 311.1zM280.5 51L0 204l280.5 153L510 232.05V408h51V204L280.5 51z"/></symbol><symbol id="code" viewBox="0 0 522.468 522.469"><path d="M325.762 70.513l-17.706-4.854c-2.279-.76-4.524-.521-6.707.715-2.19 1.237-3.669 3.094-4.429 5.568L190.426 440.53c-.76 2.475-.522 4.809.715 6.995 1.237 2.19 3.09 3.665 5.568 4.425l17.701 4.856c2.284.766 4.521.526 6.71-.712 2.19-1.243 3.666-3.094 4.425-5.564L332.042 81.936c.759-2.474.523-4.808-.716-6.999-1.238-2.19-3.089-3.665-5.564-4.424zm-159.595 71.952c0-2.474-.953-4.665-2.856-6.567l-14.277-14.276c-1.903-1.903-4.093-2.857-6.567-2.857s-4.665.955-6.567 2.857L2.856 254.666C.95 256.569 0 258.759 0 261.233s.953 4.664 2.856 6.566l133.043 133.044c1.902 1.906 4.089 2.854 6.567 2.854s4.665-.951 6.567-2.854l14.277-14.268c1.903-1.902 2.856-4.093 2.856-6.57 0-2.471-.953-4.661-2.856-6.563L51.107 261.233l112.204-112.201c1.906-1.902 2.856-4.093 2.856-6.567zm353.447 112.198L386.567 121.619c-1.902-1.902-4.093-2.857-6.563-2.857-2.478 0-4.661.955-6.57 2.857l-14.271 14.275c-1.902 1.903-2.851 4.09-2.851 6.567s.948 4.665 2.851 6.567l112.206 112.204-112.206 112.21c-1.902 1.902-2.851 4.093-2.851 6.563 0 2.478.948 4.668 2.851 6.57l14.271 14.268c1.909 1.906 4.093 2.854 6.57 2.854 2.471 0 4.661-.951 6.563-2.854L519.614 267.8c1.903-1.902 2.854-4.096 2.854-6.57 0-2.475-.951-4.665-2.854-6.567z"/></symbol><symbol id="face" viewBox="0 0 96.124 96.123"><path d="M72.089.02L59.624 0C45.62 0 36.57 9.285 36.57 23.656v10.907H24.037a1.96 1.96 0 0 0-1.96 1.961v15.803a1.96 1.96 0 0 0 1.96 1.96H36.57v39.876a1.96 1.96 0 0 0 1.96 1.96h16.352a1.96 1.96 0 0 0 1.96-1.96V54.287h14.654a1.96 1.96 0 0 0 1.96-1.96l.006-15.803a1.963 1.963 0 0 0-1.961-1.961H56.842v-9.246c0-4.444 1.059-6.7 6.848-6.7l8.397-.003a1.96 1.96 0 0 0 1.959-1.96V1.98A1.96 1.96 0 0 0 72.089.02z"/></symbol><symbol id="git" viewBox="0 0 438.549 438.549"><path d="M409.132 114.573c-19.608-33.596-46.205-60.194-79.798-79.8-33.598-19.607-70.277-29.408-110.063-29.408-39.781 0-76.472 9.804-110.063 29.408-33.596 19.605-60.192 46.204-79.8 79.8C9.803 148.168 0 184.854 0 224.63c0 47.78 13.94 90.745 41.827 128.906 27.884 38.164 63.906 64.572 108.063 79.227 5.14.954 8.945.283 11.419-1.996 2.475-2.282 3.711-5.14 3.711-8.562 0-.571-.049-5.708-.144-15.417a2549.81 2549.81 0 0 1-.144-25.406l-6.567 1.136c-4.187.767-9.469 1.092-15.846 1-6.374-.089-12.991-.757-19.842-1.999-6.854-1.231-13.229-4.086-19.13-8.559-5.898-4.473-10.085-10.328-12.56-17.556l-2.855-6.57c-1.903-4.374-4.899-9.233-8.992-14.559-4.093-5.331-8.232-8.945-12.419-10.848l-1.999-1.431c-1.332-.951-2.568-2.098-3.711-3.429-1.142-1.331-1.997-2.663-2.568-3.997-.572-1.335-.098-2.43 1.427-3.289 1.525-.859 4.281-1.276 8.28-1.276l5.708.853c3.807.763 8.516 3.042 14.133 6.851 5.614 3.806 10.229 8.754 13.846 14.842 4.38 7.806 9.657 13.754 15.846 17.847 6.184 4.093 12.419 6.136 18.699 6.136 6.28 0 11.704-.476 16.274-1.423 4.565-.952 8.848-2.383 12.847-4.285 1.713-12.758 6.377-22.559 13.988-29.41-10.848-1.14-20.601-2.857-29.264-5.14-8.658-2.286-17.605-5.996-26.835-11.14-9.235-5.137-16.896-11.516-22.985-19.126-6.09-7.614-11.088-17.61-14.987-29.979-3.901-12.374-5.852-26.648-5.852-42.826 0-23.035 7.52-42.637 22.557-58.817-7.044-17.318-6.379-36.732 1.997-58.24 5.52-1.715 13.706-.428 24.554 3.853 10.85 4.283 18.794 7.952 23.84 10.994 5.046 3.041 9.089 5.618 12.135 7.708 17.705-4.947 35.976-7.421 54.818-7.421s37.117 2.474 54.823 7.421l10.849-6.849c7.419-4.57 16.18-8.758 26.262-12.565 10.088-3.805 17.802-4.853 23.134-3.138 8.562 21.509 9.325 40.922 2.279 58.24 15.036 16.18 22.559 35.787 22.559 58.817 0 16.178-1.958 30.497-5.853 42.966-3.9 12.471-8.941 22.457-15.125 29.979-6.191 7.521-13.901 13.85-23.131 18.986-9.232 5.14-18.182 8.85-26.84 11.136-8.662 2.286-18.415 4.004-29.263 5.146 9.894 8.562 14.842 22.077 14.842 40.539v60.237c0 3.422 1.19 6.279 3.572 8.562 2.379 2.279 6.136 2.95 11.276 1.995 44.163-14.653 80.185-41.062 108.068-79.226 27.88-38.161 41.825-81.126 41.825-128.906-.01-39.771-9.818-76.454-29.414-110.049z"/></symbol><symbol id="idea" viewBox="0 0 512 512"><path d="M256.003 94.976c-77.973 0-141.41 63.435-141.41 141.41 0 47.073 23.706 91.179 62.458 117.326v18.797h157.903v-18.797c38.752-26.146 62.459-70.253 62.459-117.326.001-77.974-63.436-141.41-141.41-141.41zm46.844 151.227l-45 60.798c-5.418 7.321-15.747 8.865-23.069 3.445-7.322-5.419-8.865-15.748-3.445-23.069l25.529-34.493h-34.444c-13.532 0-21.294-15.447-13.258-26.306l44.999-60.798c5.421-7.322 15.748-8.864 23.069-3.445 7.321 5.419 8.865 15.747 3.445 23.069l-25.529 34.493h34.444c13.534 0 21.296 15.448 13.259 26.306zM177.053 405.496v43.246c0 9.109 7.385 16.494 16.494 16.494h1.395C202.218 492.142 226.829 512 256.004 512s53.787-19.858 61.063-46.764h1.395c9.109 0 16.494-7.385 16.494-16.494v-43.246H177.053zM72.519 219.921H36.085c-9.109 0-16.494 7.385-16.494 16.494s7.385 16.494 16.494 16.494h36.433c9.109 0 16.494-7.385 16.494-16.494s-7.385-16.494-16.493-16.494zM137.92 95.008l-25.762-25.762c-6.44-6.441-16.884-6.441-23.325 0-6.441 6.441-6.441 16.884 0 23.325l25.762 25.762c6.44 6.441 16.884 6.442 23.325 0 6.441-6.441 6.441-16.884 0-23.325zM256 0c-9.109 0-16.494 7.385-16.494 16.494v36.433c0 9.109 7.385 16.494 16.494 16.494s16.494-7.385 16.494-16.494V16.494C272.494 7.385 265.109 0 256 0zm219.915 219.921h-36.433c-9.109 0-16.494 7.385-16.494 16.494s7.385 16.494 16.494 16.494h36.433c9.109 0 16.494-7.385 16.494-16.494-.001-9.109-7.384-16.494-16.494-16.494zM423.168 69.247c-6.439-6.44-16.883-6.441-23.325 0L374.08 95.009c-6.441 6.441-6.441 16.884 0 23.325 6.44 6.44 16.883 6.44 23.325 0l25.763-25.762c6.441-6.441 6.441-16.884 0-23.325z" fill="#f4d800"/></symbol><symbol id="in" viewBox="0 0 430.117 430.117"><path d="M430.117 261.543V420.56h-92.188V272.193c0-37.271-13.334-62.707-46.703-62.707-25.473 0-40.632 17.142-47.301 33.724-2.432 5.928-3.058 14.179-3.058 22.477V420.56h-92.219s1.242-251.285 0-277.32h92.21v39.309c-.187.294-.43.611-.606.896h.606v-.896c12.251-18.869 34.13-45.824 83.102-45.824 60.673-.001 106.157 39.636 106.157 124.818zM52.183 9.558C20.635 9.558 0 30.251 0 57.463c0 26.619 20.038 47.94 50.959 47.94h.616c32.159 0 52.159-21.317 52.159-47.94-.606-27.212-20-47.905-51.551-47.905zM5.477 420.56h92.184V143.24H5.477v277.32z"/></symbol><symbol id="lamp" viewBox="0 0 272.311 272.311"><g fill="#bfbfbf"><path d="M199.432 83.02c-12.129-27.672-42.073-42.92-71.73-38.333-3.859.597-7.585 1.566-11.177 2.823-.89-.018-1.781-.038-2.671-.059-.747-.017-.842.858-.377 1.228-21.641 8.85-37.402 29.195-40.911 52.839-2.418 16.293 1.378 33.332 11.424 46.515 15.03 19.723 35.633 26.94 45.416 50.659-6.826 2.682-11.192 11.671-7.472 18.413.09.162.226.209.348.293.384 1.082 1.332 1.908 2.616 2.548-.052.026-.105.012-.156.054-.275.228-.478.535-.723.797-.3.002-.6 0-.9.002-.455.002-.455.704 0 .706h.257c-3.601 4.75-3.155 13.275 2.584 15.994.021.223.109.431.362.547 11.756 5.41 26.731 3.072 39.095.927 8.979-1.557 21.683-3.324 28.191-10.735 3.944 2.929 5.94 7.665 5 12.426-8.657 8.163-19.894 11.339-31.367 13.333-10.406 1.809-29.088 5.791-38.65-1.434.137-.245.191-.529-.021-.853-.061-.093-.106-.19-.165-.283 4.177.674 8.386 1.203 12.586 1.691.453.053.565-.734.109-.803-4.383-.665-8.786-1.3-13.198-1.752-.727-1.349-1.198-2.74-1.376-4.142 3.934-.047 7.865.116 11.787.411.59.044.574-.851 0-.911-3.948-.413-7.882-.459-11.842-.299-.089-1.977.412-3.968 1.687-5.89.404-.609-.475-1.219-.978-.755-2.906 2.685-3.82 7.342-2.258 10.948a.476.476 0 0 0 .041.38c2.089 4.03 5.265 6.374 8.989 7.678.017.059-.01.116.029.174 15.206 22.715 59.306 17.64 62.519-11.975.012-.107-.018-.187-.027-.281.903-.701 1.825-1.374 2.67-2.163.299-.008.584-.103.737-.431.051-.11.073-.228.121-.339.216-.215.463-.384.674-.605.519-.543.439-1.188.101-1.651 1.31-5.37-.605-11.259-5.233-14.496 2.895-4.726 2.698-12.946-1.578-17.069.538-.539 1.074-1.08 1.546-1.672.816-1.022-.086-2.315-1.106-2.144 1.029-7.741-4.627-15.92-13.065-15.938-.02 0-.029.019-.049.02-3.561-24.17 16.992-40.655 22.326-62.806 3.463-14.386 1.732-30.09-4.185-43.587zm-33.588 186.824c-11.536 2.149-22.125-2.48-29.549-11.192 7.38 1.689 16.337.108 23.425-.724 11.484-1.348 23.82-3.581 33.67-9.851-2.533 12.81-15.563 19.535-27.546 21.767zm28.604-53.334c.559 2.066.539 4.076.16 6.067-.206.1-.403.244-.56.497-6.223 9.971-21.225 11.785-31.872 13.495-10.652 1.711-23.635 3.354-34.231.278-.032-.161-.078-.324-.209-.455-.753-.752-1.412-1.578-2.015-2.433 3.924.898 7.916 1.546 11.945 1.629.777.016.751-1.122 0-1.19-4.285-.386-8.526-.828-12.751-1.655-.948-1.644-1.526-3.411-1.624-5.2 3.906.108 7.823.069 11.729.016.586-.008.587-.903 0-.911-3.913-.053-7.836-.093-11.75.016.072-1.742.678-3.487 1.918-5.153 1.93.013 3.861.021 5.791.012 6.335.807 14.024.135 15.746-.02 12.92-1.167 33.468-1.668 44.822-10.242 1.211 1.578 2.32 3.101 2.901 5.249zm-13.484-23.629c.223-.186.4-.426.507-.706 3.183.815 5.904 1.79 8.107 4.476 2.319 2.828 3.152 6.492 2.83 10.088-.352.294-.728.52-1.087.791-.693-.051-1.381.395-1.437 1.046-7.274 4.796-15.944 5.683-24.659 7.133-3.634.605-38.611 6.255-41.426.291-.064-.361-.099-.715-.145-1.072.013-.118.006-.229.039-.353.054-.207-.032-.378-.156-.52-.031-.369-.023-.729-.033-1.093.05.033.068.087.138.104 4.31 1.055 8.537 1.089 12.852.048.656-.159.375-1.132-.277-1.004-4.081.801-8.217.784-12.284-.101a.514.514 0 0 0-.455.112c.04-2.336.555-4.532 1.536-6.519 3.988.34 7.985.78 11.986.826.55.006.523-.779 0-.837-3.855-.425-7.749-.485-11.627-.621a14.22 14.22 0 0 1 4.556-4.916c.33.857.682 1.679.984 2.579.224.668 1.05.591 1.299.109.074.024.112.084.204.085 16.044.278 33.024-2.312 48.037-8.051.888-.34.966-1.344.511-1.895zm-33.786 6.582c-5.941-30.462-20.803-58.006-37.789-83.765 7.97-7.27 21.215-9.006 31.183-5.298 6.992 2.601 12.766 7.649 19.963 9.823a77.98 77.98 0 0 0 3.931 1.095c-5.007 24.548-4.504 49.891 1.262 74.586-6.159 1.36-12.319 2.591-18.55 3.559zm54.641-84.013c-1.816 28.099-29.222 47.644-23.467 76.702.057.289.175.509.322.689-3.653.95-7.273 1.754-10.899 2.579-4.585-25.197-4.474-49.211.07-73.426 4.593.672 9.156.164 10.6-4.384.443-1.394-1.468-2.002-2.226-.938-1.851 2.595-4.64 3.318-7.866 2.975 1.436-7.201 3.201-14.42 5.413-21.701.493-1.623-1.945-2.245-2.51-.692-2.596 7.134-4.665 14.387-6.268 21.71-8.425-2.414-18.551-9.808-23.614-11.68-5.925-2.191-12.195-2.594-18.364-1.224-5.668 1.26-10.931 3.941-14.904 7.72a634.635 634.635 0 0 0-5.994-8.85c-.691-1.001-2.297-.105-1.654.966 1.962 3.267 3.925 6.514 5.878 9.754-3.867 4.496-6.034 10.239-5.302 16.847.098.881 1.438.93 1.413 0-.165-6.17 1.826-11.109 5.069-14.887 15.739 26.146 30.602 51.849 37.712 82.177-4.222.623-8.48 1.164-12.816 1.572-.165.016-.268.107-.376.189-.256-.91-.608-1.738-.906-2.612a.636.636 0 0 0-.157-.452c-.216-.616-.501-1.173-.737-1.771 2.91.469 5.806.936 8.735 1.264.601.067.737-.941.143-1.059-2.845-.563-5.702-.985-8.571-1.41-.317-.047-.532.139-.658.364-2.309-5.556-5.476-10.368-9.1-14.782 2.778.416 5.593.488 8.388.088.468-.067.354-.838-.111-.822-3.073.111-6.089.04-9.129-.267-2.482-2.923-5.174-5.661-7.953-8.321 1.949.316 3.894.658 5.852.902.505.063.627-.808.121-.895-2.324-.4-4.666-.694-7.005-.996-2.311-2.179-4.675-4.308-7.035-6.438 3.089.329 6.123.945 9.15 1.785.639.177.893-.779.272-.986-3.464-1.152-7.03-1.725-10.648-1.909-3.176-2.873-6.3-5.784-9.269-8.822 3.937.656 7.911 1.399 11.878 1.59.543.026.659-.824.129-.949-4.316-1.021-8.84-1.38-13.247-1.924-3.068-3.241-5.909-6.669-8.367-10.417 3.389.657 6.791 1.263 10.21 1.72.621.083.761-.971.148-1.096-3.68-.746-7.401-1.319-11.122-1.833-2.266-3.648-4.151-7.614-5.51-12.022 3.72.608 7.449 1.245 11.21 1.523.496.036.616-.789.119-.877-3.75-.659-7.556-.958-11.348-1.284-.071-.006-.124.026-.172.062a61.37 61.37 0 0 1-1.867-8.643c3.752.026 7.399.429 11.109 1.043.751.124 1.09-.969.321-1.165-3.768-.962-7.708-1.201-11.584-.984a61.932 61.932 0 0 1-.468-6.484c3.525.111 7.057.132 10.58.009.777-.027.779-1.181 0-1.209-3.513-.123-7.035-.101-10.549.009-.003-3.756.368-7.472 1.019-11.122 4.273.27 8.554.621 12.835.552.929-.015.885-1.315 0-1.413-4.163-.46-8.364-.523-12.552-.651 1.653-8.13 4.888-15.852 9.364-22.75 4.357.469 8.719.982 13.093 1.182.841.038 1.063-1.377.203-1.498-4.078-.568-8.191-.871-12.299-1.188a66.281 66.281 0 0 1 7.777-9.311c4.965.475 9.924.968 14.912 1.136.857.029.808-1.203 0-1.301-4.53-.553-9.081-.834-13.633-1.108 3.002-2.836 6.305-5.346 9.816-7.557 5.186.969 10.43 1.409 15.714.904 1.017-.097 1.058-1.652 0-1.618-4.654.151-9.228.081-13.803-.461 4.35-2.525 9.058-4.482 14.012-5.886 4.558.319 9.118.604 13.681.653 1.187.013 1.154-1.729 0-1.822-2.257-.183-4.524-.25-6.789-.344 1.864-.296 3.736-.573 5.661-.692 38.588-2.372 70.409 29.766 67.92 68.267z"/><path d="M95.661 181.366c-8.595 3.937-17.327 7.668-25.855 11.736-.854.407-.253 1.821.645 1.529 8.976-2.917 17.815-7.237 25.942-12.013.82-.482.102-1.634-.732-1.252zm-41.442-60.123c-8.861 1.463-17.394 1.036-26.249-.123-.925-.121-1.092 1.381-.218 1.607 8.841 2.287 18.033 1.997 26.946.255 1.149-.224.65-1.925-.479-1.739zM79.55 50.139c-6.65-8.712-11.327-18.427-14.417-28.932-.284-.967-1.729-.564-1.506.415 2.499 10.985 7.527 20.792 14.551 29.575.613.767 1.975-.269 1.372-1.058zM134.736.936c.122-1.063-1.703-1.319-1.881-.254-1.335 7.993-1.433 15.985-.676 24.047.11 1.175 1.947 1.202 1.859 0-.583-7.971-.209-15.862.698-23.793zm57.133 9.866c-6.068 7.061-9.822 15.961-12.385 24.832-.371 1.283 1.582 1.806 1.99.549 2.858-8.79 7.272-16.301 11.913-24.209.541-.922-.786-2.024-1.518-1.172zm49.646 46.993c-4.488 3.615-8.517 7.802-12.653 11.807-.975.945.496 2.403 1.486 1.486 4.221-3.912 8.62-7.707 12.468-11.991.807-.898-.391-2.036-1.301-1.302zm2.024 70.32c-7.793 3.432-15.454 7.066-23.424 10.087-1.257.477-.733 2.506.564 2.044 8.168-2.912 16.333-6.089 23.921-10.317 1.208-.673.146-2.346-1.061-1.814zM156.334 265.44c-4.069-.832-8.535-1.784-12.698-1.816-.405-.003-.472.578-.094.694 3.981 1.224 8.52 1.656 12.661 2.09.55.057.673-.858.131-.968zm-6.026-4.927a43.674 43.674 0 0 0-11.322-.644c-.366.027-.374.59 0 .576 3.74-.136 7.458.083 11.154.678.395.063.571-.534.168-.61zm-15.95-72.013c-2.203-.039-4.408-.007-6.611 0-.335.001-.336.52 0 .521 2.203.007 4.408.039 6.611 0 .335-.006.335-.515 0-.521zM90.727 87.552c-3.496-.338-7.069-.094-10.577-.047-.993.013-.994 1.53 0 1.543 3.508.047 7.081.291 10.577-.047a.725.725 0 0 0 0-1.449z"/></g></symbol><symbol id="msg" viewBox="0 0 24 24"><path d="M20 2H4c-1.1 0-1.99.9-1.99 2L2 22l4-4h14c1.1 0 2-.9 2-2V4c0-1.1-.9-2-2-2zm-2 12H6v-2h12v2zm0-3H6V9h12v2zm0-3H6V6h12v2z"/><path d="M0 0h24v24H0z" fill="none"/></symbol><symbol id="plus" viewBox="0 0 27.483 27.483"><path d="M27.095 12.917L13.443.782c-.5-.444-1.456-.795-2.124-.781L1.454.213A1.284 1.284 0 0 0 .213 1.454L0 11.319c-.014.668.337 1.624.781 2.123l12.135 13.652c.444.5 1.194.521 1.667.048l12.56-12.561a1.133 1.133 0 0 0-.048-1.664zM6.684 6.684a1.824 1.824 0 0 1-2.579-2.578 1.822 1.822 0 0 1 2.577 0 1.82 1.82 0 0 1 .002 2.578zm13.14 8.06h-4.557v4.795h-2.136v-4.795H8.575v-2.048h4.557V7.944h2.136v4.752h4.557v2.048z" fill="#f4d800"/></symbol></svg>