<svg xmlns="http://www.w3.org/2000/svg" viewBox="725 75 20 20">
  <defs>
    <style>
      .cls-1 {
        fill: #fff;
      }
    </style>
  </defs>
  <path id="whatsapp" class="cls-1" d="M10.166,0A9.833,9.833,0,0,0,1.632,14.717L.017,19.561a.333.333,0,0,0,.4.428L5.707,18.6A9.833,9.833,0,1,0,10.166,0ZM16.3,14.3l-.586.586A3.426,3.426,0,0,1,13.263,16h0a5.721,5.721,0,0,1-3.834-2.031l-3.4-3.4A6.707,6.707,0,0,1,4.09,7.5,3.3,3.3,0,0,1,5.115,4.284L5.7,3.7a1.263,1.263,0,0,1,1.459-.22A6.888,6.888,0,0,1,9.069,5.66,1.243,1.243,0,0,1,9.23,6.6a.87.87,0,0,1-.4.517,8.216,8.216,0,0,0-.641.577.9.9,0,0,0,.136,1.32l2.654,2.654a.9.9,0,0,0,1.325.133,8.491,8.491,0,0,0,.573-.637.875.875,0,0,1,.779-.431,1.381,1.381,0,0,1,.676.193,6.9,6.9,0,0,1,2.186,1.911A1.236,1.236,0,0,1,16.3,14.3Z" transform="translate(725 75)"/>
</svg>
